<mxfile host="app.diagrams.net" agent="Mozilla/5.0 (Windows NT 10.0; Win64; x64) AppleWebKit/537.36 (KHTML, like Gecko) Chrome/140.0.0.0 Safari/537.36 Edg/140.0.0.0" version="28.2.5">
  <diagram name="Página-1" id="GaKZNHGlAN73U_5XXHMx">
    <mxGraphModel dx="1418" dy="786" grid="1" gridSize="10" guides="1" tooltips="1" connect="1" arrows="1" fold="1" page="1" pageScale="1" pageWidth="1169" pageHeight="827" math="0" shadow="0">
      <root>
        <mxCell id="0" />
        <mxCell id="1" parent="0" />
        <mxCell id="tklojOHJzrnAR231xeOE-2" value="" style="rounded=1;whiteSpace=wrap;html=1;rotation=90;" parent="1" vertex="1">
          <mxGeometry x="600" y="330" width="592.5" height="290" as="geometry" />
        </mxCell>
        <mxCell id="tklojOHJzrnAR231xeOE-22" value="" style="rounded=1;whiteSpace=wrap;html=1;rotation=90;" parent="1" vertex="1">
          <mxGeometry x="274.38" y="326.63" width="601.25" height="290" as="geometry" />
        </mxCell>
        <mxCell id="tklojOHJzrnAR231xeOE-23" value="" style="rounded=1;whiteSpace=wrap;html=1;rotation=90;" parent="1" vertex="1">
          <mxGeometry x="-65" y="315" width="592.5" height="320" as="geometry" />
        </mxCell>
        <mxCell id="tklojOHJzrnAR231xeOE-1" value="OSF v8.0 CEO" style="image;sketch=0;aspect=fixed;html=1;points=[];align=center;fontSize=15;image=img/lib/mscae/Software_as_a_Service.svg;labelBackgroundColor=light-dark(#dae8fc, #ededed);fontColor=light-dark(#280eec, #ededed);fontStyle=1;labelPosition=center;verticalLabelPosition=top;verticalAlign=bottom;" parent="1" vertex="1">
          <mxGeometry x="857.5" y="250" width="110" height="110" as="geometry" />
        </mxCell>
        <mxCell id="tklojOHJzrnAR231xeOE-12" style="edgeStyle=orthogonalEdgeStyle;rounded=0;orthogonalLoop=1;jettySize=auto;html=1;" parent="1" source="tklojOHJzrnAR231xeOE-8" target="tklojOHJzrnAR231xeOE-10" edge="1">
          <mxGeometry relative="1" as="geometry" />
        </mxCell>
        <mxCell id="tklojOHJzrnAR231xeOE-8" value="Cliente SFTP" style="points=[[0.03,0.03,0],[0.5,0,0],[0.97,0.03,0],[1,0.4,0],[0.97,0.745,0],[0.5,1,0],[0.03,0.745,0],[0,0.4,0]];verticalLabelPosition=bottom;sketch=0;html=1;verticalAlign=top;aspect=fixed;align=center;pointerEvents=1;shape=mxgraph.cisco19.workstation;fillColor=#005073;strokeColor=none;fontColor=light-dark(#59b4d9, #ededed);" parent="1" vertex="1">
          <mxGeometry x="190" y="620" width="87.5" height="70" as="geometry" />
        </mxCell>
        <mxCell id="tklojOHJzrnAR231xeOE-20" style="edgeStyle=orthogonalEdgeStyle;rounded=0;orthogonalLoop=1;jettySize=auto;html=1;" parent="1" source="tklojOHJzrnAR231xeOE-10" target="tklojOHJzrnAR231xeOE-15" edge="1">
          <mxGeometry relative="1" as="geometry" />
        </mxCell>
        <mxCell id="tklojOHJzrnAR231xeOE-10" value="Protocolo Seguro" style="sketch=0;outlineConnect=0;fontColor=light-dark(#01a88d, #bdc7d4);gradientColor=none;fillColor=#01A88D;strokeColor=none;dashed=0;verticalLabelPosition=bottom;verticalAlign=top;align=center;html=1;fontSize=12;fontStyle=0;aspect=fixed;shape=mxgraph.aws4.transfer_for_sftp_resource;spacingLeft=2;" parent="1" vertex="1">
          <mxGeometry x="192.75" y="437" width="82" height="78" as="geometry" />
        </mxCell>
        <mxCell id="tklojOHJzrnAR231xeOE-34" style="edgeStyle=orthogonalEdgeStyle;rounded=0;orthogonalLoop=1;jettySize=auto;html=1;" parent="1" source="tklojOHJzrnAR231xeOE-15" target="tklojOHJzrnAR231xeOE-22" edge="1">
          <mxGeometry relative="1" as="geometry" />
        </mxCell>
        <mxCell id="tklojOHJzrnAR231xeOE-15" value="SFTP SmartFlex v8.0" style="verticalLabelPosition=bottom;sketch=0;html=1;fillColor=#A153A0;strokeColor=#ffffff;verticalAlign=top;align=center;points=[[0,0.5,0],[0.125,0.25,0],[0.25,0,0],[0.5,0,0],[0.75,0,0],[0.875,0.25,0],[1,0.5,0],[0.875,0.75,0],[0.75,1,0],[0.5,1,0],[0.125,0.75,0]];pointerEvents=1;shape=mxgraph.cisco_safe.compositeIcon;bgIcon=mxgraph.cisco_safe.design.blank_device;resIcon=mxgraph.cisco_safe.design.server_3;labelPosition=center;spacingLeft=2;fontColor=light-dark(#59b4d9, #ededed);" parent="1" vertex="1">
          <mxGeometry x="188.75" y="220" width="90" height="85" as="geometry" />
        </mxCell>
        <mxCell id="tklojOHJzrnAR231xeOE-27" style="edgeStyle=orthogonalEdgeStyle;rounded=0;orthogonalLoop=1;jettySize=auto;html=1;entryX=0.5;entryY=0;entryDx=0;entryDy=0;" parent="1" source="tklojOHJzrnAR231xeOE-16" target="tklojOHJzrnAR231xeOE-22" edge="1">
          <mxGeometry relative="1" as="geometry" />
        </mxCell>
        <mxCell id="tklojOHJzrnAR231xeOE-16" value="PB Asignación Masiva&amp;nbsp;&lt;div&gt;Materiales y Equipos&lt;/div&gt;&lt;div&gt;&lt;br&gt;&lt;div&gt;&lt;br&gt;&lt;/div&gt;&lt;/div&gt;" style="html=1;whiteSpace=wrap;strokeColor=none;fillColor=#0079D6;labelPosition=center;verticalLabelPosition=middle;verticalAlign=top;align=center;fontSize=12;outlineConnect=0;spacingTop=-6;fontColor=#FFFFFF;sketch=0;shape=mxgraph.sitemap.form;" parent="1" vertex="1">
          <mxGeometry x="830" y="490" width="165" height="120" as="geometry" />
        </mxCell>
        <mxCell id="tklojOHJzrnAR231xeOE-17" value="Servidor Base de datos" style="image;aspect=fixed;html=1;points=[];align=center;fontSize=12;image=img/lib/azure2/databases/Oracle_Database.svg;labelBackgroundColor=light-dark(#dae8fc, #ededed);fontColor=light-dark(#f20d0d, #ededed);" parent="1" vertex="1">
          <mxGeometry x="527.5" y="580" width="85" height="85" as="geometry" />
        </mxCell>
        <mxCell id="tklojOHJzrnAR231xeOE-26" value="Uso de Objetos de API &#xa;(OS_SET_AJUST_ITEM)&#xa;para registrar&#xa; movimientos de &#xa;Entrada y Salida&#xa;" style="group;labelPosition=center;verticalLabelPosition=top;align=center;verticalAlign=bottom;fontStyle=1;fontColor=light-dark(#3b8df1, #ededed);fontSize=11;" parent="1" vertex="1" connectable="0">
          <mxGeometry x="525" y="350" width="90" height="80" as="geometry" />
        </mxCell>
        <mxCell id="tklojOHJzrnAR231xeOE-25" value="" style="sketch=0;html=1;aspect=fixed;strokeColor=none;shadow=0;fillColor=#3B8DF1;verticalAlign=top;labelPosition=center;verticalLabelPosition=bottom;shape=mxgraph.gcp2.folders" parent="tklojOHJzrnAR231xeOE-26" vertex="1">
          <mxGeometry width="90" height="76.49808754781131" as="geometry" />
        </mxCell>
        <mxCell id="tklojOHJzrnAR231xeOE-24" value="" style="image;sketch=0;aspect=fixed;html=1;points=[];align=center;fontSize=12;image=img/lib/mscae/Logic_Apps.svg;" parent="tklojOHJzrnAR231xeOE-26" vertex="1">
          <mxGeometry x="38.24904377390561" y="18.666666666666664" width="31.874203144921374" height="24.861878453038674" as="geometry" />
        </mxCell>
        <mxCell id="tklojOHJzrnAR231xeOE-28" style="edgeStyle=orthogonalEdgeStyle;rounded=0;orthogonalLoop=1;jettySize=auto;html=1;entryX=0.5;entryY=0;entryDx=0;entryDy=0;entryPerimeter=0;" parent="1" source="tklojOHJzrnAR231xeOE-1" target="tklojOHJzrnAR231xeOE-16" edge="1">
          <mxGeometry relative="1" as="geometry" />
        </mxCell>
        <mxCell id="tklojOHJzrnAR231xeOE-29" style="edgeStyle=orthogonalEdgeStyle;rounded=0;orthogonalLoop=1;jettySize=auto;html=1;entryX=0.499;entryY=0.992;entryDx=0;entryDy=0;entryPerimeter=0;" parent="1" source="tklojOHJzrnAR231xeOE-16" target="tklojOHJzrnAR231xeOE-1" edge="1">
          <mxGeometry relative="1" as="geometry" />
        </mxCell>
        <mxCell id="tklojOHJzrnAR231xeOE-30" style="edgeStyle=orthogonalEdgeStyle;rounded=0;orthogonalLoop=1;jettySize=auto;html=1;entryX=0;entryY=0.5;entryDx=0;entryDy=0;entryPerimeter=0;exitX=0.5;exitY=0;exitDx=0;exitDy=0;" parent="1" source="tklojOHJzrnAR231xeOE-22" target="tklojOHJzrnAR231xeOE-16" edge="1">
          <mxGeometry relative="1" as="geometry" />
        </mxCell>
        <mxCell id="tklojOHJzrnAR231xeOE-35" style="edgeStyle=orthogonalEdgeStyle;rounded=0;orthogonalLoop=1;jettySize=auto;html=1;entryX=1;entryY=0.5;entryDx=0;entryDy=0;entryPerimeter=0;" parent="1" source="tklojOHJzrnAR231xeOE-22" target="tklojOHJzrnAR231xeOE-15" edge="1">
          <mxGeometry relative="1" as="geometry" />
        </mxCell>
        <mxCell id="tklojOHJzrnAR231xeOE-36" style="edgeStyle=entityRelationEdgeStyle;rounded=0;orthogonalLoop=1;jettySize=auto;html=1;strokeColor=default;" parent="1" source="tklojOHJzrnAR231xeOE-25" target="tklojOHJzrnAR231xeOE-17" edge="1">
          <mxGeometry relative="1" as="geometry" />
        </mxCell>
        <mxCell id="tklojOHJzrnAR231xeOE-38" style="edgeStyle=orthogonalEdgeStyle;rounded=0;orthogonalLoop=1;jettySize=auto;html=1;entryX=-0.033;entryY=0.557;entryDx=0;entryDy=0;entryPerimeter=0;" parent="1" source="tklojOHJzrnAR231xeOE-17" target="tklojOHJzrnAR231xeOE-25" edge="1">
          <mxGeometry relative="1" as="geometry">
            <Array as="points">
              <mxPoint x="490" y="623" />
              <mxPoint x="490" y="393" />
            </Array>
          </mxGeometry>
        </mxCell>
        <mxCell id="PaSD0ZUk3fDogM5hzEUK-1" value="Solución&amp;nbsp;&lt;span style=&quot;background-color: transparent; color: light-dark(rgb(85, 85, 85), rgb(237, 237, 237));&quot;&gt;Asignación Masiva de Materiales y Equipos&lt;/span&gt;" style="text;html=1;fontSize=25;fontStyle=1;verticalAlign=middle;align=center;strokeWidth=3;fontColor=light-dark(#555555, #ededed);" parent="1" vertex="1">
          <mxGeometry x="110" y="60" width="920" height="70" as="geometry" />
        </mxCell>
        <mxCell id="DQhsDFS7Y7FfYDSMO6gJ-1" value="Ruta&lt;div&gt;Parametrizada&lt;/div&gt;" style="shape=image;html=1;verticalAlign=top;verticalLabelPosition=bottom;labelBackgroundColor=#ffffff;imageAspect=0;aspect=fixed;image=https://icons.diagrams.net/icon-cache1/WHCompare_Servers___Web_Hosting-2845/sftp-1033.svg;fontStyle=1;fontColor=light-dark(#3b8df1, #ededed);" parent="1" vertex="1">
          <mxGeometry x="100" y="220" width="50" height="50" as="geometry" />
        </mxCell>
        <mxCell id="DQhsDFS7Y7FfYDSMO6gJ-2" style="edgeStyle=elbowEdgeStyle;rounded=0;orthogonalLoop=1;jettySize=auto;html=1;entryX=0.003;entryY=0.376;entryDx=0;entryDy=0;entryPerimeter=0;shape=link;" parent="1" source="DQhsDFS7Y7FfYDSMO6gJ-1" target="tklojOHJzrnAR231xeOE-15" edge="1">
          <mxGeometry relative="1" as="geometry" />
        </mxCell>
      </root>
    </mxGraphModel>
  </diagram>
</mxfile>
